<?xml version="1.0" encoding="utf-8"?>
<!-- Generator: Adobe Illustrator 22.0.0, SVG Export Plug-In . SVG Version: 6.00 Build 0)  -->
<svg version="1.1" id="Layer_1" xmlns="http://www.w3.org/2000/svg" xmlns:xlink="http://www.w3.org/1999/xlink" x="0px" y="0px"
	 viewBox="0 0 2048 420" style="enable-background:new 0 0 2048 420;" xml:space="preserve">
<style type="text/css">
	.st0{fill:none;}
	.st1{fill:#ffffff;}
</style>
<path class="st0" d="M-260-259.9h2500v939.8H-260V-259.9z"/>
<g>
	<path class="st1" d="M1056,206.2c-16.8,0-28.9,5.5-41.1,11.1v126.7c11.7,1.1,18.5,1.1,29.6,1.1c40.2,0,45.8-18.4,45.8-44.2v-60.5
		C1090.2,221.5,1083.9,206.2,1056,206.2L1056,206.2z M788.7,199.3c-27.9,0-34.3,15.3-34.3,34.3v10.7H823v-10.7
		C823,214.6,816.6,199.3,788.7,199.3z M270.9,331.2c0,15,7.1,22.8,22.7,22.8c16.8,0,26.7-5.5,39-11.1v-30.1h-36.7
		C278.6,312.9,270.9,316.1,270.9,331.2L270.9,331.2z M1316,206.2c-28,0-37.7,15.3-37.7,34.3v69.4c0,19.1,9.7,34.4,37.7,34.4
		c27.9,0,37.7-15.3,37.7-34.4v-69.4C1353.6,221.5,1343.9,206.2,1316,206.2z M133.9,409H51.7V210H10.6v-68.6h41.1v-41.2
		c0-55.9,23.2-89.2,89.1-89.2h54.9v68.6h-34.3c-25.7,0-27.3,9.6-27.3,27.5l-0.1,34.3H196l-7.3,68.6h-54.9L133.9,409L133.9,409z
		 M414.9,409.5h-68.5l-3-17.3c-31.3,17.3-59.2,20.1-77.6,20.1c-50.3,0-77-33.6-77-80c0-54.8,31.2-74.3,87-74.3h56.8v-11.8
		c0-28-3.2-36.2-46.2-36.2h-70.3l6.9-68.6h76.8c94.3,0,115,29.8,115,105.3L414.9,409.5L414.9,409.5z M647.9,215
		c-42.6-7.3-54.9-8.9-75.4-8.9c-36.9,0-48,8.1-48,39.4v59.2c0,31.3,11.1,39.5,48,39.5c20.5,0,32.8-1.6,75.4-9v66.9
		c-37.3,8.4-61.7,10.6-82.2,10.6c-88.3,0-123.4-46.4-123.4-113.5v-48c0-67.1,35.1-113.6,123.4-113.6c20.6,0,44.9,2.2,82.2,10.6V215
		L647.9,215z M905.2,299.2H754.4v5.5c0,31.3,11.1,39.5,48,39.5c33.1,0,53.3-1.6,95.9-9v66.9c-41.1,8.4-62.4,10.6-102.7,10.6
		c-88.3,0-123.4-46.4-123.4-113.5v-54.9c0-58.7,26-106.7,116.5-106.7S905.2,185,905.2,244.3V299.2z M1172.4,300.5
		c0,64.8-18.5,112.1-130.7,112.1c-40.5,0-64.3-3.6-109-10.4V31.6l82.2-13.7v129.6c17.8-6.6,40.8-10,61.7-10
		c82.2,0,95.9,36.9,95.9,96.1L1172.4,300.5L1172.4,300.5z M1435.9,301.9c0,55.9-23.1,110.1-119.7,110.1
		c-96.6,0-120.1-54.2-120.1-110.1v-54c0-55.9,23.5-110.2,120.1-110.2c96.6,0,119.7,54.2,119.7,110.2V301.9L1435.9,301.9z
		 M1699.2,301.9c0,55.9-23.1,110.1-119.7,110.1c-96.6,0-120.1-54.2-120.1-110.1v-54c0-55.9,23.5-110.2,120.1-110.2
		c96.6,0,119.7,54.2,119.7,110.2V301.9L1699.2,301.9z M1969.4,409h-89.1L1805,283.2V409h-82.2V31.6l82.2-13.7v242.9l75.3-119.4h89.1
		l-82.3,130.3L1969.4,409z M1579.2,206.2c-27.9,0-37.6,15.3-37.6,34.3v69.4c0,19.1,9.7,34.4,37.6,34.4c27.9,0,37.8-15.3,37.8-34.4
		v-69.4C1617,221.5,1607.1,206.2,1579.2,206.2L1579.2,206.2z M2016.3,362c13.8,0,24.9,11.3,24.9,25.4c0,14.3-11,25.5-25,25.5
		c-13.9,0-25.1-11.2-25.1-25.5c0-14.1,11.2-25.4,25.1-25.4H2016.3z M2016.2,366c-11.2,0-20.3,9.6-20.3,21.4
		c0,12.1,9.1,21.5,20.4,21.5c11.3,0.1,20.3-9.5,20.3-21.4c0-11.9-9-21.6-20.3-21.6H2016.2z M2011.5,402.2h-4.5v-28.3
		c2.4-0.3,4.6-0.7,8-0.7c4.3,0,7.1,0.9,8.8,2.1c1.7,1.3,2.6,3.2,2.6,5.9c0,3.7-2.5,6-5.5,6.9v0.2c2.5,0.5,4.2,2.7,4.7,6.9
		c0.7,4.4,1.3,6.1,1.8,7h-4.7c-0.7-0.9-1.4-3.5-1.9-7.2c-0.7-3.6-2.5-5-6.1-5h-3.1L2011.5,402.2L2011.5,402.2z M2011.5,386.5h3.3
		c3.7,0,6.9-1.4,6.9-4.9c0-2.5-1.8-5-6.9-5c-1.5,0-2.5,0.1-3.3,0.2V386.5L2011.5,386.5z"/>
</g>
</svg>
