<?xml version="1.0" encoding="utf-8"?>
<!-- Generator: Adobe Illustrator 22.0.0, SVG Export Plug-In . SVG Version: 6.00 Build 0)  -->
<svg version="1.1" id="Layer_1" xmlns="http://www.w3.org/2000/svg" xmlns:xlink="http://www.w3.org/1999/xlink" x="0px" y="0px"
	 viewBox="0 0 60 60" style="enable-background:new 0 0 60 60;" xml:space="preserve">
<style type="text/css">
	.st0{fill:#FFFFFF;}
</style>
<path class="st0" d="M54.4,7.1h-7c-0.8,0-1.5,0.7-1.5,1.5c0,0.8,0.7,1.5,1.5,1.5h7c0.8,0,1.5,0.7,1.5,1.5v9.5H3.8v-9.5
	c0-0.8,0.7-1.5,1.5-1.5h8c0.8,0,1.5-0.7,1.5-1.5c0-0.8-0.7-1.5-1.5-1.5h-8c-2.5,0-4.6,2-4.6,4.6v41.2c0,2.5,2,4.6,4.6,4.6h49.1
	c2.5,0,4.6-2,4.6-4.6V11.7C59,9.2,57,7.1,54.4,7.1z M56,52.9c0,0.8-0.7,1.5-1.5,1.5H5.4c-0.8,0-1.5-0.7-1.5-1.5V24.2H56L56,52.9
	L56,52.9z M23.7,10.2h12.2c0.8,0,1.5-0.7,1.5-1.5c0-0.8-0.7-1.5-1.5-1.5H23.7c-0.8,0-1.5,0.7-1.5,1.5C22.2,9.5,22.9,10.2,23.7,10.2z
	 M18.2,18.4c1.7,0,3.1-1.4,3.1-3.1c0-1.2-0.7-2.2-1.6-2.7V3.4c0-0.8-0.7-1.5-1.5-1.5c-0.8,0-1.5,0.7-1.5,1.5v9.1
	c-1,0.5-1.6,1.6-1.6,2.7C15.1,17,16.5,18.4,18.2,18.4z M41.6,18.4c1.7,0,3.1-1.4,3.1-3.1c0-1.2-0.7-2.2-1.6-2.7V3.4
	c0-0.8-0.7-1.5-1.5-1.5c-0.8,0-1.5,0.7-1.5,1.5v9.1c-1,0.5-1.6,1.6-1.6,2.7C38.4,17,39.8,18.4,41.6,18.4z"/>
</svg>
