<?xml version="1.0" encoding="utf-8"?>
<!-- Generator: Adobe Illustrator 22.0.1, SVG Export Plug-In . SVG Version: 6.00 Build 0)  -->
<svg version="1.1" id="Layer_1" xmlns="http://www.w3.org/2000/svg" xmlns:xlink="http://www.w3.org/1999/xlink" x="0px" y="0px"
	 viewBox="0 0 60 60" style="enable-background:new 0 0 60 60;" xml:space="preserve">
<style type="text/css">
	.st0{fill:#ffffff;}
</style>
<path class="st0" d="M3.3,51.5c-0.6,0-1.2-0.5-1.2-1.1V9.7c0-0.6,0.5-1.1,1.2-1.1S4.4,9,4.4,9.7v40.7C4.4,51,3.9,51.5,3.3,51.5z"/>
<path class="st0" d="M50.9,5.2H9.1C8.4,5.2,7.9,4.6,7.9,4s0.5-1.1,1.2-1.1h41.8c0.6,0,1.2,0.5,1.2,1.1S51.6,5.2,50.9,5.2z"/>
<path class="st0" d="M50.9,57.1H9.1c-0.6,0-1.2-0.5-1.2-1.1c0-0.6,0.5-1.1,1.2-1.1h41.8c0.6,0,1.2,0.5,1.2,1.1
	C52.1,56.6,51.6,57.1,50.9,57.1z"/>
<path class="st0" d="M3.3,10.8c-0.6,0-1.2-0.5-1.2-1.1c0-3.7,3.1-6.8,7-6.8c0.6,0,1.2,0.5,1.2,1.1S9.7,5.2,9.1,5.2
	c-2.6,0-4.6,2-4.6,4.5C4.4,10.3,3.9,10.8,3.3,10.8z"/>
<path class="st0" d="M56.7,10.8c-0.6,0-1.2-0.5-1.2-1.1c0-2.5-2.1-4.5-4.6-4.5c-0.6,0-1.2-0.5-1.2-1.1s0.5-1.1,1.2-1.1
	c3.8,0,7,3,7,6.8C57.9,10.3,57.4,10.8,56.7,10.8z"/>
<path class="st0" d="M9.1,57.1c-3.8,0-7-3-7-6.8c0-0.6,0.5-1.1,1.2-1.1s1.2,0.5,1.2,1.1c0,2.5,2.1,4.5,4.6,4.5
	c0.6,0,1.2,0.5,1.2,1.1C10.2,56.6,9.7,57.1,9.1,57.1z"/>
<path class="st0" d="M50.9,57.1c-0.6,0-1.2-0.5-1.2-1.1c0-0.6,0.5-1.1,1.2-1.1c2.6,0,4.6-2,4.6-4.5c0-0.6,0.5-1.1,1.2-1.1
	c0.6,0,1.2,0.5,1.2,1.1C57.9,54.1,54.8,57.1,50.9,57.1z"/>
<path class="st0" d="M50.9,14.2H9.1c-0.6,0-1.2-0.5-1.2-1.1s0.5-1.1,1.2-1.1h41.8c0.6,0,1.2,0.5,1.2,1.1S51.6,14.2,50.9,14.2z"/>
<path class="st0" d="M25.4,23.2H9.1c-0.6,0-1.2-0.5-1.2-1.1S8.4,21,9.1,21h16.3c0.6,0,1.2,0.5,1.2,1.1S26,23.2,25.4,23.2z"/>
<path class="st0" d="M50.9,23.2H34.6c-0.6,0-1.2-0.5-1.2-1.1S34,21,34.6,21h16.3c0.6,0,1.2,0.5,1.2,1.1S51.6,23.2,50.9,23.2z"/>
<path class="st0" d="M25.4,32.3H9.1c-0.6,0-1.2-0.5-1.2-1.1S8.4,30,9.1,30h16.3c0.6,0,1.2,0.5,1.2,1.1S26,32.3,25.4,32.3z"/>
<path class="st0" d="M50.9,32.3H34.6c-0.6,0-1.2-0.5-1.2-1.1S34,30,34.6,30h16.3c0.6,0,1.2,0.5,1.2,1.1S51.6,32.3,50.9,32.3z"/>
<path class="st0" d="M25.4,41.3H9.1c-0.6,0-1.2-0.5-1.2-1.1S8.4,39,9.1,39h16.3c0.6,0,1.2,0.5,1.2,1.1S26,41.3,25.4,41.3z"/>
<path class="st0" d="M50.9,41.3H34.6c-0.6,0-1.2-0.5-1.2-1.1S34,39,34.6,39h16.3c0.6,0,1.2,0.5,1.2,1.1S51.6,41.3,50.9,41.3z"/>
<path class="st0" d="M56.7,51.5c-0.6,0-1.2-0.5-1.2-1.1V9.7c0-0.6,0.5-1.1,1.2-1.1c0.6,0,1.2,0.5,1.2,1.1v40.7
	C57.9,51,57.4,51.5,56.7,51.5z"/>
</svg>
