<?xml version="1.0" encoding="utf-8"?>
<!-- Generator: Adobe Illustrator 22.0.1, SVG Export Plug-In . SVG Version: 6.00 Build 0)  -->
<svg version="1.1" id="Layer_1" xmlns="http://www.w3.org/2000/svg" xmlns:xlink="http://www.w3.org/1999/xlink" x="0px" y="0px"
	 viewBox="0 0 60 60" style="enable-background:new 0 0 60 60;" xml:space="preserve">
<style type="text/css">
	.st0{fill:#ffffff;}
</style>
<path class="st0" d="M55.8,27.5h-0.2v-9.8c0-4.7-3.8-8.5-8.5-8.5H12.9c-4.7,0-8.5,3.8-8.5,8.5v9.8H4.2c-2.3,0-4.2,1.8-4.2,4.1v19.3
	h11.4v-1.6c0-1.2,1-2.2,2.2-2.2h32.8c1.2,0,2.2,1,2.2,2.2v1.6H60V31.6C60,29.3,58.1,27.5,55.8,27.5z M6.3,17.7c0-3.7,3-6.6,6.6-6.6
	h34.1c3.7,0,6.6,3,6.6,6.6v9.8h-1.9v-0.3c0-4-3.3-7.3-7.3-7.3h-6.3c-4,0-7.3,3.3-7.3,7.3v0.3h-1.9v-0.3c0-4-3.3-7.3-7.3-7.3h-6.3
	c-4,0-7.3,3.3-7.3,7.3v0.3H6.3V17.7z M49.9,27.5H32.8v-0.3c0-3,2.4-5.4,5.4-5.4h6.3c3,0,5.4,2.4,5.4,5.4V27.5z M27.2,27.5H10.1v-0.3
	c0-3,2.4-5.4,5.4-5.4h6.3c3,0,5.4,2.4,5.4,5.4L27.2,27.5L27.2,27.5z M4.2,29.4h0.2h3.8h20.8h1.9h20.8h3.8h0.2c1.3,0,2.3,1,2.3,2.2
	v8.5H1.9v-8.5C1.9,30.4,2.9,29.4,4.2,29.4z M50.5,48.9c-0.2-2.1-1.9-3.8-4.1-3.8H13.6c-2.2,0-3.9,1.7-4.1,3.8H1.9V42h56.2v6.9H50.5z
	"/>
</svg>
