<?xml version="1.0" encoding="utf-8"?>
<!-- Generator: Adobe Illustrator 22.0.1, SVG Export Plug-In . SVG Version: 6.00 Build 0)  -->
<svg version="1.1" xmlns="http://www.w3.org/2000/svg" xmlns:xlink="http://www.w3.org/1999/xlink" x="0px" y="0px"
	 viewBox="0 0 1712 510" style="enable-background:new 0 0 1712 510;" xml:space="preserve">
<style type="text/css">
	.st0{fill:#301B10;}
	.st1{fill:#006838;}
	.st2{fill:#FFFFFF;}
	.st3{fill:#FBD016;}
</style>
<g id="Layer_3">
	<path class="st0" d="M291,140.8c0,0-0.3,0-0.7,0.1c-0.1,0.3-0.2,0.6-0.4,0.9c-1.8,2.8-2.9,6.3-5,8.8c0.2,2-0.9,4.2-3.2,4.2
		c-1.3,0-2.2-0.7-2.7-1.6c-1.1-0.2-2.1-0.8-3.1-1.5c0.9,2,1.7,6.6,0.8,17.5c0,0,5.8,4.4,7.6,2.6c0,0,2.6-6.5,2.1-10.6
		c0,0,2.6-14.1,4.7-17.8V140.8z"/>
	<path class="st0" d="M331.4,137.6c-0.5,1.1-1.4,1.8-2.9,1.8c-0.2,0-0.4,0-0.6-0.1c-0.4,0.1-0.8,0.2-1.2,0.2c-0.6,0-1.2-0.2-1.6-0.4
		c-0.4,0.3-1,0.4-1.6,0.4c-0.4,0-0.8-0.1-1.1-0.2c-0.3,0.1-0.7,0.2-1.1,0.2c-0.9,0-1.6-0.3-2.1-0.8c-0.2,0-0.5,0.1-0.7,0.1
		c-1.2,0-2-0.5-2.6-1.3c-0.1,0-0.3,0-0.5,0c-1.1,0-2-0.5-2.5-1.3c-0.2-0.2-0.4-0.4-0.5-0.6c-0.6,0-1.2-0.2-1.6-0.5
		c-0.5,0.5-1.3,0.9-2.2,0.9c-0.2,0-0.3,0-0.4,0c-0.5,0.7-1.3,1.1-2.4,1.1c-0.5,0-1-0.1-1.4-0.3c-0.1,0.2-0.1,0.4-0.2,0.5
		c0,0-1,4.5-3.1,6.8c0,0,4.9,22.5,5,26.1c0,0,0.2,0.1,0.5,0.2c0.8-0.8,2-1.1,3.2-0.9c0.8,0.1,1.6,0.3,2.4,0.4
		c0.5-0.7,1.3-1.1,2.4-1.1c1.5,0,2.5,0.9,3,2.1c0.6,0.1,1.2,0.2,1.8,0.4c0.5,0.1,0.9,0.3,1.2,0.5c0.3-0.2,0.5-0.5,0.7-0.9
		c0,0,0.7-9.7,2.2-13.1c0,0,8.9-16.6,10.4-18.3v-1.5C333.7,138.2,332.8,138,331.4,137.6z"/>
	<path class="st0" d="M358.2,148c-0.5,0.5-1.2,0.8-2.1,0.8c-0.3,0-0.5,0-0.7-0.1c-0.2,0.1-0.5,0.1-0.8,0.1c-0.2,0-0.5,0-0.7-0.1
		c-0.2,0-0.4,0.1-0.7,0.1c-0.9,0-1.6-0.3-2.1-0.8c-1.2-0.7-1.8-2.3-1.7-3.9c-0.1-0.2-0.2-0.3-0.2-0.5c-0.5-0.5-0.8-1.1-0.9-1.7
		c0,0,0-0.1-0.1-0.1c-0.5,1.5-1.8,5-4.5,8.6c0,0-11,13.7-10.2,21.9c0.5-0.4,1.1-0.6,1.8-0.6c0.9,0,1.5,0.3,2,0.8
		c0.3-0.1,0.7-0.2,1.1-0.2c0.8,0,1.5,0.3,2,0.8c0.9,0,1.7,0.4,2.2,1c0.4,0,0.7,0.1,1.1,0.2c0,0,0.1,0,0.1,0c0.5,0,0.9,0.1,1.3,0.3
		c0.3-0.2,0.6-0.3,0.9-0.4c0.5-1.9,1.6-5.4,3.5-8.4c0,0,8-13.5,8.1-14.3l0.8-2.6C358.6,148.8,358.4,148.5,358.2,148z"/>
	<path class="st0" d="M273.5,495.3c-11.7,1.3-17.8-26.9-17.8-26.9c-3.8-12.2-3-33.7-3-33.7c15.7-21.3-0.6-34.6-0.6-34.6
		c-4.5-43.3,1.5-81.9,1.5-81.9c1.1-15.7,22.2-39.9,22.2-39.9c11.2-13.1,13.1-25.1,13.4-28.7c-0.5,0.4-1.2,0.7-2,0.7
		c-0.3,0-0.6,0-0.9-0.1c-0.4,0.5-1.1,0.9-1.9,1.1c-0.5,0.7-1.4,1.2-2.6,1.2c-0.6,0-1.2-0.1-1.6-0.4c-0.4,0.1-0.8,0.2-1.2,0.2
		c-0.7,0-1.4-0.2-1.9-0.5c-0.5,0.8-1.4,1.4-2.7,1.4c-0.9,0-1.6-0.3-2.2-0.8c-0.7,0.3-1.1,0.5-1.1,0.5c2,23.5-17.2,20.1-17.2,20.1
		c-1.1-1.5-1.4-11.3-1.4-15.3c-0.2-0.1-0.4-0.2-0.5-0.3c-0.5,0.4-1.2,0.6-2,0.6c-0.3,0-0.5,0-0.7-0.1c-0.5,0.9-1.4,1.6-2.8,1.6
		c-0.8,0-1.5-0.2-2-0.6c-0.3,0.1-0.6,0.1-1,0.1c-0.5,0-1-0.1-1.4-0.3c-0.5,0.3-1,0.5-1.7,0.5c-0.5,0-0.9-0.1-1.3-0.2
		c-0.4,0.1-0.8,0.2-1.3,0.2c-0.5,0-1-0.1-1.3-0.3c-0.5,0.3-1,0.4-1.7,0.4c-0.5,0-0.9-0.1-1.3-0.2c-0.5,0.6-1.3,1.1-2.4,1.1
		c-0.6,0-1.1-0.1-1.5-0.3c-0.1,0-0.1,0-0.2,0c-0.7,0-1.2-0.2-1.7-0.4c-0.2,0.2-0.4,0.3-0.7,0.4c-0.2,0.6-0.7,1.2-1.3,1.6
		c0,0,0,0,0,0l0.8,1c1.3,4.8-2.8,8.6-2.8,8.6c-3.1,0.8-15.2-1.4-15.2-1.4c-6.1-1.6-30.1-2.5-30.1-2.5c-11.7-0.7-18.9-4.8-18.9-4.8
		c-0.4-3.5-3.6-7.3-3.6-7.3c-0.6,0.3-5.8-9.3-5.8-9.3l-6.7-2.9c-0.2,0-0.3,0.1-0.5,0.1c1,4.5-2.4,8.8-5.6,11.7
		c-4.3,4.1-9.6,6.7-14.4,10c0.2,0.6,0.4,0.9,0.4,0.9c0.7,1,19,2.1,19,2.1c10.2-1.2,24.3,6,24.3,6c5.4,3.3,18.2,3.1,18.2,3.1
		c16.6-0.2,25.8,5.6,25.8,5.6c0.2,1,8,5.4,8,5.4c4.1,3.9,1.5,16.3,1.5,16.3c-14.1,5-34.1-8.2-34.1-8.2c-4.1-2.5-9.6-4.3-9.6-4.3
		c-5.2-2.4-25.8-4.6-25.8-4.6c-11.3,0-14.6-1.1-14.6-1.1c-5.5-3-10.1-3.5-11.3-3.6c0.4,1.1,0.3,2.4-0.4,3.4c1.1,0.9,1.4,2.4,1,3.7
		c0,0.3,0,0.7-0.1,1c0.2,0,0.2,0.1,0.2,0.1c1.1-0.5,2.9,0.4,2.9,0.4c0.8,0.7,8.8,1.1,8.8,1.1c1.1,0.2,3.8-0.1,3.8-0.1
		c1.7,0.6,4.2,0.8,4.2,0.8c8.6,0,18.7,2.7,18.7,2.7c4.3-0.4,9.2,4,9.2,4c2.2,2.5,9.2,4.5,9.2,4.5c9.1,0.9,13.8,3.2,13.8,3.2
		c5.5,1.4,5.2,3.4,5.2,3.4l-1,3c-30.5-2.1-73.8-2-73.8-2c-8,0.5-8.1,3.5-8.1,3.5c0.7,1,2.3,0.9,2.3,0.9c14.9-0.6,73.7,5.6,73.7,5.6
		c3.3,0.6,10.8-0.1,10.8-0.1c26.2-3.7,10.6,17.9,10.6,17.9c-9.4-0.8-49.7,0.2-49.7,0.2c-4.4,1.6-11.3,6.2-11.3,6.2
		c-7.4,5.5-27.2,8.7-27.2,8.7c-15,2.5-20,4.5-20,4.5c1.8-0.3,5.5,2,5.5,2c13.3,0.1,21.3-2.8,21.3-2.8c2.8-0.4,26.1-8.9,26.1-8.9
		c16.9-7.3,40.3-3.4,40.3-3.4c19,1.7,21.2,11.9,21.2,11.9c6,68.9-1.2,117.7-1.2,117.7c-0.7,9-11.4,9.8-11.4,9.8
		c-2.1,0.3-4.3,2.2-4.3,2.2l0.8,3.1c1.5,0.9,12.7,0.9,12.7,0.9c10.2-1.1,15.7,8.3,15.7,8.3c6.8,7,10.8,4.3,10.8,4.3l0.4-2.8
		c23.7,1.9,31.5-2.3,30.9-2.6C275.6,497.7,273.5,495.3,273.5,495.3z"/>
</g>
<g id="Layer_2">
	<path class="st1" d="M175.4,45c0.6,0.2,33.1,4.5,54.1-22.4c0,0,21.1,4.9,28-7.7c0,0,9.3,7.3,10.8,10.9c1.1,0.4,5.7-0.8,8.9-1.3
		c0,0,12.1-1.5,19.7,6.6c0,0,8.9,7.5,17.6,5.8c0,0,13.3-0.2,15.7,1.7c0,0,10,39.1,54.6,40.3c0,0,32.2,7,62,18.8
		c0,0,5.3,25.8,0.9,37.1c0,0-22.2,9.4-51.9,3.8l-4.4,3.2c0,0-2.1,4-13.8,2.6c0,0-7.4-1.5-18.4,7.1c0,0-9.5,4.9-9.7-6.2
		c0,0-2.5-3-5.1-4.1c0,0-1.3-2.1-3.2-2.8c0,0-27.1,5.3-30.1-0.8c0,0-22,3-22,9c0,0-3.2,3.3-2.5,6c0,0-2.3,4.6-6.3,2.9
		c0,0-9.1-8.8-15.2-6.6c0,0-8.5,4.3-9.5,5.6c0,0-3.4,2.8-4.9,1.3c0,0-6,2.6-3.9,6.3l0.4,7.1c0,0-3.2,1.9,26.2-1.2
		c0,0,7.8-1.1,16.9,5.8c0,0,3.2,2.6,14.8-4.4c0,0,9.5-6,21.1,3.9c0,0,18.9-7.2,25.4,7l1.1,1.7c0,0,3.8,1.6,6.3,0.9
		c0,0,12.2-13.5,25.7-4.7c0,0,11.3,8.4,16.3,8.5c0,0,17.1,2,20.7,4.6c0,0,5.6,3.1,7.8,5.3c0,0,0.4,1.3-1,2.4c0,0-10,10.5-12.2,11.6
		c0,0-2.5,2.4-2.7,2.9c0,0-3.6,2.4-4.4,3.1c0,0-6.2,3.6-7.2,3.7c0,0-6.6,3.1-10.8,7.9c0,0-13.5-0.1-23.7,7.9c0,0-12.2,8.8-13.5,8.9
		c0,0-5.5-0.4-10.1-9.1c0,0-7.7,3.8-26.9,3.6c0,0-17.8-0.1-26.3,10.9c0,0-7.9,3.7-8.7,3.9c0,0-9.4,1.1-10,0.8c0,0-1.2-7.6-1-9.2
		c0,0-0.9-5.6-1.8-5.3c0,0-6.9-0.5-8.7,0.3c0,0-4.1-0.5-5,2.8c0,0-6.1,5.5-1.4,9c0,0,1.5,6.9-4.3,7.8c0,0-12.5,2.4-19.2,1
		c0,0-1.7-1.2-2.7,0.9c0,0-4.7,5.7-7.6-1.5c0,0-4.2-12.9-16.8-15.2c0,0-11.3-0.7-16.2-15.1l-1.6-5.1c0,0-18.8-7.2-38.7,4
		c0,0-2.8,19.7-5.5,24.9c0,0-0.7,1.4-4.1,2.7c0,0-7.6,2.8-11.9,8.1c0,0-4.3,3.7-0.7,15.9c0,0,3.9,27.8,2.6,31.2c0,0-0.1,3.4-4,2.5
		c0,0-3.5,0.3-5.6,3.2c0,0-16.8,12.7-18.3,13c0,0-8.1,7-17.2,4.2c0,0-14.4-3.5-23.3,3.3c0,0-8.4,5.4-24.6,11.3c0,0-5.8-3.7-7.4-11.3
		c0,0,0.3-1.4-1.8-1.9c0,0-17.6-0.2-13.1-22.8c0,0,4.7-0.4,5.4-0.5c0,0,1,0.9,0.9-1.9l-0.6-20l0.3-1.6c0,0-0.7,0.6,1-1.3l4.8-2.8
		c0,0-0.9-6.1,4.9-21.9c0,0,2.3-7.9,1.7-15.2l-0.3-5c0,0-0.8-2.4,1.9-6.5c0,0,18.2-21.5,20-23.8c0,0,4.6-4.7,5.8-7.2
		c0,0-0.1-2.2,4.1-3.1l6.5-1.8c0,0,3.8,0,5.1-6.1c0,0,0.5-11.8,0.8-11.9c0.3-0.2-1.5-7.6,7.1-15.8l10.2-9.9c0,0,2.6-0.7,1.8-8.9V137
		c0,0,0.4-2,4.3-4.6c0,0,9.9-7,13-11.7c0,0,4.1-0.9,12.1-1.1c0,0,6.2-8.6,11.3-11.7c0,0,15.1-7.9,17.2-21.2c0,0,10.1-3.9,14.5-15.5
		L175.4,45z"/>
</g>
<g id="Layer_4">
	<g>
		<path class="st2" d="M642.2,193.4c-4.9,2.4-14.6,4.9-27.1,4.9c-28.9,0-50.6-18.2-50.6-51.9c0-32.1,21.7-53.8,53.5-53.8
			c12.8,0,20.8,2.7,24.3,4.6l-3.2,10.8c-5-2.4-12.2-4.3-20.7-4.3c-24,0-40,15.4-40,42.3c0,25.1,14.4,41.2,39.4,41.2
			c8.1,0,16.3-1.7,21.6-4.3L642.2,193.4z"/>
		<path class="st2" d="M698.1,196.7l-1.1-9.3h-0.5c-4.1,5.8-12,11-22.5,11c-14.9,0-22.5-10.5-22.5-21.1c0-17.8,15.8-27.5,44.3-27.4
			v-1.5c0-6.1-1.7-17-16.7-17c-6.8,0-14,2.1-19.2,5.5l-3-8.8c6.1-4,14.9-6.5,24.2-6.5c22.5,0,28,15.4,28,30.1v27.5
			c0,6.4,0.3,12.6,1.2,17.6H698.1z M696.1,159.1c-14.6-0.3-31.2,2.3-31.2,16.6c0,8.7,5.8,12.8,12.6,12.8c9.6,0,15.7-6.1,17.8-12.3
			c0.5-1.4,0.8-2.9,0.8-4.3V159.1z"/>
		<path class="st2" d="M730.6,143c0-7.6-0.2-13.8-0.6-19.9h11.7l0.6,11.9h0.5c4.1-7,10.9-13.5,23.1-13.5c10,0,17.6,6.1,20.8,14.8
			h0.3c2.3-4.1,5.2-7.3,8.2-9.6c4.4-3.3,9.3-5.2,16.3-5.2c9.7,0,24.2,6.4,24.2,31.9v43.3h-13.1V155c0-14.1-5.2-22.7-16-22.7
			c-7.6,0-13.5,5.6-15.8,12.2c-0.6,1.8-1.1,4.3-1.1,6.7v45.5h-13.1v-44.1c0-11.7-5.2-20.2-15.4-20.2c-8.4,0-14.4,6.7-16.6,13.4
			c-0.8,2-1.1,4.3-1.1,6.5v44.4h-13.1V143z"/>
		<path class="st2" d="M857.5,147.1c0-9.4-0.3-17-0.6-24h12l0.6,12.6h0.3c5.5-9,14.1-14.3,26.2-14.3c17.8,0,31.2,15.1,31.2,37.4
			c0,26.5-16.1,39.5-33.5,39.5c-9.7,0-18.2-4.3-22.7-11.6h-0.3v40h-13.2V147.1z M870.7,166.7c0,2,0.3,3.8,0.6,5.5
			c2.4,9.3,10.5,15.7,20.1,15.7c14.1,0,22.4-11.6,22.4-28.4c0-14.8-7.8-27.4-21.9-27.4c-9.1,0-17.6,6.5-20.2,16.6
			c-0.5,1.7-0.9,3.6-0.9,5.5V166.7z"/>
		<path class="st2" d="M958.9,102.4c0.2,4.6-3.2,8.2-8.5,8.2c-4.7,0-8.1-3.7-8.1-8.2c0-4.7,3.5-8.4,8.4-8.4
			C955.7,94.1,958.9,97.7,958.9,102.4z M944,196.7v-73.6h13.4v73.6H944z"/>
		<path class="st2" d="M979.6,143c0-7.6-0.2-13.8-0.6-19.9h11.9l0.8,12.2h0.3c3.7-7,12.2-13.8,24.3-13.8c10.2,0,26,6.1,26,31.3v44
			h-13.4v-42.4c0-11.9-4.4-21.7-17-21.7c-8.8,0-15.7,6.2-17.9,13.7c-0.6,1.7-0.9,4-0.9,6.2v44.3h-13.4V143z"/>
		<path class="st2" d="M1127.4,123.1c-0.3,5.3-0.6,11.3-0.6,20.2v42.7c0,16.9-3.3,27.2-10.5,33.6c-7.1,6.7-17.5,8.8-26.8,8.8
			c-8.8,0-18.6-2.1-24.5-6.1l3.3-10.2c4.9,3,12.5,5.8,21.6,5.8c13.7,0,23.7-7.1,23.7-25.7v-8.2h-0.3c-4.1,6.8-12,12.3-23.4,12.3
			c-18.2,0-31.3-15.5-31.3-35.9c0-24.9,16.3-39.1,33.2-39.1c12.8,0,19.8,6.7,23,12.8h0.3l0.6-11.1H1127.4z M1113.6,152.1
			c0-2.3-0.2-4.3-0.8-6.1c-2.4-7.8-9-14.1-18.7-14.1c-12.8,0-21.9,10.8-21.9,27.8c0,14.4,7.3,26.5,21.7,26.5
			c8.2,0,15.7-5.2,18.6-13.7c0.8-2.3,1.1-4.9,1.1-7.1V152.1z"/>
	</g>
</g>
<g id="Layer_5">
	<g>
		<path class="st2" d="M453.8,284.7h22.9v158.2h75.8v19.2h-98.7V284.7z"/>
		<path class="st2" d="M586.4,402.6c0.5,31.3,20.5,44.2,43.7,44.2c16.6,0,26.6-2.9,35.3-6.6l3.9,16.6c-8.2,3.7-22.1,7.9-42.4,7.9
			c-39.2,0-62.6-25.8-62.6-64.2c0-38.4,22.6-68.7,59.8-68.7c41.6,0,52.6,36.6,52.6,60c0,4.7-0.5,8.4-0.8,10.8H586.4z M654.3,386
			c0.3-14.7-6.1-37.6-32.1-37.6c-23.4,0-33.7,21.6-35.5,37.6H654.3z"/>
		<path class="st2" d="M702.2,438.4c6.8,4.5,19,9.2,30.5,9.2c16.8,0,24.7-8.4,24.7-19c0-11.1-6.6-17.1-23.7-23.4
			c-22.9-8.2-33.7-20.8-33.7-36.1c0-20.5,16.6-37.4,44-37.4c12.9,0,24.2,3.7,31.3,7.9l-5.8,16.8c-5-3.2-14.2-7.4-26.1-7.4
			c-13.7,0-21.3,7.9-21.3,17.4c0,10.5,7.6,15.3,24.2,21.6c22.1,8.4,33.4,19.5,33.4,38.4c0,22.4-17.4,38.2-47.6,38.2
			c-14,0-26.8-3.4-35.8-8.7L702.2,438.4z"/>
		<path class="st2" d="M837.5,298.1v36.6h33.2v17.6h-33.2V421c0,15.8,4.5,24.7,17.4,24.7c6.1,0,10.5-0.8,13.4-1.6l1.1,17.4
			c-4.5,1.8-11.6,3.2-20.5,3.2c-10.8,0-19.5-3.4-25-9.7c-6.6-6.8-8.9-18.2-8.9-33.2v-69.5h-19.7v-17.6h19.7v-30.5L837.5,298.1z"/>
		<path class="st2" d="M967.3,462.1l-1.8-16.1h-0.8c-7.1,10-20.8,19-39,19c-25.8,0-39-18.2-39-36.6c0-30.8,27.4-47.6,76.6-47.4v-2.6
			c0-10.5-2.9-29.5-29-29.5c-11.8,0-24.2,3.7-33.2,9.5l-5.3-15.3c10.5-6.8,25.8-11.3,41.9-11.3c39,0,48.4,26.6,48.4,52.1v47.6
			c0,11.1,0.5,21.8,2.1,30.5H967.3z M963.9,397.1c-25.3-0.5-54,3.9-54,28.7c0,15,10,22.1,21.8,22.1c16.6,0,27.1-10.5,30.8-21.3
			c0.8-2.4,1.3-5,1.3-7.4V397.1z"/>
		<path class="st2" d="M1130.2,427.3c0,13.2,0.3,24.7,1.1,34.7h-20.5l-1.3-20.8h-0.5c-6.1,10.3-19.5,23.7-42.1,23.7
			c-20,0-44-11.1-44-55.8v-74.5h23.2v70.5c0,24.2,7.4,40.5,28.4,40.5c15.5,0,26.3-10.8,30.5-21.1c1.3-3.4,2.1-7.6,2.1-11.8v-78.2
			h23.2V427.3z"/>
		<path class="st2" d="M1167.6,462.1c0.5-8.7,1.1-21.6,1.1-32.9v-154h22.9v80h0.5c8.2-14.2,22.9-23.4,43.4-23.4
			c31.6,0,54,26.3,53.7,65c0,45.5-28.7,68.2-57.1,68.2c-18.4,0-33.2-7.1-42.6-24h-0.8l-1.1,21.1H1167.6z M1191.6,411
			c0,2.9,0.5,5.8,1.1,8.4c4.5,16.1,17.9,27.1,34.7,27.1c24.2,0,38.7-19.7,38.7-49c0-25.5-13.2-47.4-37.9-47.4
			c-15.8,0-30.5,10.8-35.3,28.4c-0.5,2.6-1.3,5.8-1.3,9.5V411z"/>
		<path class="st2" d="M1344.2,298.9c0.3,7.9-5.5,14.2-14.7,14.2c-8.2,0-14-6.3-14-14.2c0-8.2,6.1-14.5,14.5-14.5
			C1338.7,284.4,1344.2,290.7,1344.2,298.9z M1318.4,462.1V334.7h23.2v127.4H1318.4z"/>
		<path class="st2" d="M1392.9,402.6c0.5,31.3,20.5,44.2,43.7,44.2c16.6,0,26.6-2.9,35.3-6.6l3.9,16.6c-8.2,3.7-22.1,7.9-42.4,7.9
			c-39.2,0-62.6-25.8-62.6-64.2c0-38.4,22.6-68.7,59.8-68.7c41.6,0,52.6,36.6,52.6,60c0,4.7-0.5,8.4-0.8,10.8H1392.9z M1460.8,386
			c0.3-14.7-6.1-37.6-32.1-37.6c-23.4,0-33.7,21.6-35.5,37.6H1460.8z M1421.9,279.7l23.2,37.6h-16.6l-32.1-37.6H1421.9z"/>
		<path class="st2" d="M1511.9,374.4c0-15-0.3-27.9-1.1-39.7h20.3l0.8,25h1.1c5.8-17.1,19.7-27.9,35.3-27.9c2.6,0,4.5,0.3,6.6,0.8
			v21.8c-2.4-0.5-4.7-0.8-7.9-0.8c-16.3,0-27.9,12.4-31.1,29.7c-0.5,3.2-1.1,6.8-1.1,10.8v67.9h-22.9V374.4z"/>
		<path class="st2" d="M1608.2,402.6c0.5,31.3,20.5,44.2,43.7,44.2c16.6,0,26.6-2.9,35.3-6.6l3.9,16.6c-8.2,3.7-22.1,7.9-42.4,7.9
			c-39.2,0-62.6-25.8-62.6-64.2c0-38.4,22.6-68.7,59.8-68.7c41.6,0,52.6,36.6,52.6,60c0,4.7-0.5,8.4-0.8,10.8H1608.2z M1676.1,386
			c0.3-14.7-6.1-37.6-32.1-37.6c-23.4,0-33.7,21.6-35.5,37.6H1676.1z"/>
	</g>
</g>
<g id="Layer_6">
	<polygon class="st3" points="1479.2,73 1499.4,114 1544.8,120.6 1512,152.6 1519.7,197.7 1479.2,176.4 1438.6,197.7 1446.4,152.6 
		1413.6,120.6 1458.9,114 	"/>
	<polygon class="st3" points="1633.5,73 1653.7,114 1699,120.6 1666.3,152.6 1674,197.7 1633.5,176.4 1592.9,197.7 1600.7,152.6 
		1567.9,120.6 1613.2,114 	"/>
	<polygon class="st3" points="1320.1,73 1340.4,114 1385.7,120.6 1352.9,152.6 1360.7,197.7 1320.1,176.4 1279.6,197.7 
		1287.3,152.6 1254.5,120.6 1299.9,114 	"/>
</g>
</svg>
